<svg fill-rule="evenodd" height="147" image-rendering="optimizeQuality" shape-rendering="geometricPrecision" text-rendering="geometricPrecision" viewBox="0 0 582.804 187.532" width="458" xml:space="preserve" xmlns="http://www.w3.org/2000/svg">
  <defs></defs>
  <path d="m3.0042,138.443 78.6105,45.623 78.7543-45.629v-89.8924l-78.7603-45.0898-78.6045,45.3211z" fill="#fff" stroke="#333333" stroke-width="6.0084"></path>
  <path d="m3.0042,48.7759 78.6105,44.7624 78.7547-44.9877m-78.7547,135.516v-90.5281" fill="none" stroke="#333333" stroke-width="6.0084"></path>
  <path d="m68.7733,122.816c-1.5006,1.041-4.6385,2.842-9.331,4.275s-10.9367,2.5025-18.641,2.124c.9508,1.5291 2.2802,4.3696 2.9005,5.9122 4.0887.2569 10.378-.4326 13.7982-1.1506v10.5807 10.5657c1.6823.9613 3.3647,1.9482 5.047,2.9231v-11.6758-11.6758c.5738.2163.9508.1082 1.0935-.1893-.3305-.3515-.7631-.7586-1.2813-1.2723 3.3256-1.0004 7.177-2.1645 10.1256-3.8153 .6684.5002 1.1476.6624 1.4315.4461-1.7139-2.3538-3.4293-4.7076-5.1432-7.0478z" fill="#333333" fill-rule="nonzero"></path>
  <path d="m30.0854,110.084c-.4957,4.4116-1.5231,8.2165-3.7507,10.9187-2.2216,2.6932-5.6764,4.302-11.0133,4.3426 1.5081,2.0969 4.4252,6.5206 5.4796,8.4823 5.5112-.0135 9.349-2.2456 11.9732-5.6268 2.6332-3.3947 4.0722-7.9686 4.8037-12.5965 .739.4191 1.1791.2839 1.2978-.0811l-1.1176-1.0274c5.6449,3.246 11.2822,6.48 16.9346,9.7411v-7.5225c-3.6861-2.1104-7.3723-4.2269-11.0539-6.3448l-11.0374-6.3328-11.0539-6.3584-11.0389-6.3313v7.4819c6.5266,3.7342 13.0592,7.509 19.5768,11.2552z" fill="#333333" fill-rule="nonzero"></path>
  <path d="m52.5237,102.196c-1.3444-3.4082-3.97-8.9555-6.1646-12.6356-1.053.2974-2.1225.5678-3.1829.8667 .6204,1.0004 1.3444,2.2997 2.0113,3.6516l-14.7641-8.4418-14.7641-8.4418v7.4684c5.1176,2.9351 10.2383,5.8687 15.3544,8.7933l15.3454,8.7933v-5.8296c1.1251,2.3808 2.1946,4.8427 2.7999,6.6693l3.3647-.8937z" fill="#333333" fill-rule="nonzero"></path>
  <path d="m60.2985,105.038c-1.3444-3.3422-4.0331-8.7948-6.2187-12.541-.9989.3109-2.0128.6083-3.0192.9058 2.0684,3.5585 4.7571,9.322 5.9288,12.4328 1.0995-.2569 2.2006-.5272 3.3091-.7976z" fill="#333333" fill-rule="nonzero"></path>
  <path d="m145.176,86.6076c-5.1582,2.9681-10.3089,5.9363-15.4595,8.8774-.0391-3.6861-.0781-7.3993-.1187-11.0854 1.1266-.7736 1.5126-1.5186 1.5682-2.2501l-8.6235,4.5664c.0315,4.269.0706,8.5514.1097,12.8204-3.8754,2.2231-7.7508,4.4597-11.6247,6.6813l-11.6232,6.6678v7.6577c6.441-3.6861 12.8834-7.3993 19.3259-11.1125-2.8044,5.8401-6.2607,11.9266-10.049,17.7938s-7.907,11.506-12.0258,16.3848c1.8506.5272 3.8108,1.9107 4.9854,3.225 3.9054-4.9058 7.8094-10.4516 11.4264-16.182 3.611-5.72 6.9547-11.6818 9.7261-17.4543 .0556,6.8841.1112,13.7547.1652,20.6267 .1112,1.8701-.718,2.3553-6.0474,5.4331-1.4495.8382-3.0793,1.7619-4.5363,2.549 .724,1.6253 1.5126,4.4447 1.7875,6.3418 10.9397-6.3148 15.9402-9.2018 15.8291-18.2414-.0391-4.4717-.0856-8.9314-.1172-13.4032s-.0706-8.9435-.1021-13.4167c5.1342-2.9411 10.2698-5.8942 15.404-8.8488v-7.6306z" fill="#333333" fill-rule="nonzero"></path>
  <path d="m44.5506,51.8042c.4176.0541.8352.1082 1.2528.1712l17.6796,10.4065 17.6481,10.3885 10.3239-6.064c3.4383-2.0263 6.8931-4.0361 10.3239-6.0549l-6.7534-3.937c-4.7136,2.7578-9.4271,5.5232-14.1407,8.2886-4.3741-2.5671-8.7467-5.1387-13.1208-7.7027s-8.7482-5.1357-13.1208-7.7027c8.1128-3.7748 16.0574-6.2637 25.0204-7.0553 8.993-.7931 19.0555.0991 31.3727,3.0733-.2163-1.7935-.0931-4.2269.2779-5.9828-13.3987-3.243-24.6809-4.0331-35.4524-2.7128-10.755,1.3173-21.0488,4.7661-32.4692,10.046-.6023-.1622-1.3759-.1712-1.9167-.0451l3.0748,4.8833z" fill="#333333" fill-rule="nonzero"></path>
  <path d="m235.271,72.2221c-5.6208-5.2423-11.5886-7.862-17.935-7.862-5.053,0-9.0937,2.3358-12.1249,7.0088-3.0327,4.7061-4.5483,11.7794-4.5483,21.2831 0,8.999 1.421,15.7885 4.2629,20.3038 2.842,4.5468 6.7895,6.821 11.841,6.821 6.474,0 12.6626-3.8844 18.5043-11.5886v-35.9661zm0,59.4588c-2.9681,2.178-6.0625,3.8514-9.2829,5.02-3.252,1.1686-6.6948,1.7364-10.3254,1.7364-6.0309,0-11.3994-1.0725-16.0408-3.2836-4.673-2.178-8.5574-5.2723-11.7148-9.2829s-5.5262-8.8413-7.168-14.4937c-1.6418-5.6208-2.4634-11.8725-2.4634-18.7251 0-7.2626.9794-13.7982 2.9366-19.5452 1.9257-5.7786 4.6099-10.6739 8.0527-14.7145 3.4097-4.0421 7.4519-7.1364 12.0933-9.316 4.673-2.1465 9.663-3.2205 15.0299-3.2205 3.5374,0 6.8525.3785 10.0099,1.2002 3.1258.7886 6.094,1.9572 8.8729,3.5044v-36.3446h21.6617v122.107h-21.6617v-4.6415zm50.227,4.6415h-21.6286v-88.3516h21.6286v88.3516zm0-99.3709h-21.6286v-22.7357h21.6286v22.7357zm49.4714,8.9044c6.4094,0 12.188,1.0425 17.3356,3.1258 5.1462,2.1164 9.5353,5.1161 13.1673,9.0621 3.6621,3.9475 6.441,8.8098 8.4312,14.5252 1.9572,5.747 2.9681,12.2526 2.9681,19.5467 0,7.2626-1.0109,13.7667-3.0312,19.5137-1.9903,5.7155-4.8007,10.5777-8.4628,14.5568-3.6321,3.979-8.0212,7.0103-13.2304,9.1252-5.1792,2.0849-10.8947,3.1258-17.1779,3.1258-6.2517,0-11.9356-1.0094-17.0833-3.0943-5.1462-2.0519-9.5668-5.0515-13.2304-8.9675s-6.5041-8.7467-8.5574-14.5252c-2.0203-5.7786-3.0628-12.3457-3.0628-19.7345 0-7.2942 1.0109-13.7997 3.0312-19.5467 1.9903-5.7155 4.7992-10.5777 8.4628-14.5252 3.6306-3.946 8.0512-6.9457 13.2304-9.0621 5.1792-2.0834 10.8947-3.1258 17.2095-3.1258zm0,74.0787c2.8104,0 5.4316-.5693 7.862-1.7364 2.4003-1.1686 4.4522-2.9366 6.1255-5.2739 1.7064-2.3373 3.0327-5.2423 3.979-8.7151 .9794-3.4413 1.4525-7.4834 1.4525-12.0933 0-4.643-.4732-8.6836-1.4525-12.1264-.9463-3.4728-2.2727-6.3463-3.979-8.652-1.6733-2.3042-3.7252-4.0722-6.1255-5.2408-2.4304-1.1686-5.0515-1.7364-7.862-1.7364-2.9051,0-5.5577.5678-7.9581,1.7364-2.4304,1.1686-4.4837,2.9366-6.1571,5.2408-1.7049,2.3057-3.0312,5.1792-3.979,8.652-.9463,3.4428-1.4525,7.4834-1.4525,12.1264 0,4.6099.5062,8.652 1.4525,12.0933 .9478,3.4728 2.2742,6.3779 3.979,8.7151 1.6733,2.3373 3.7267,4.1052 6.1571,5.2739 2.4003,1.1671 5.053,1.7364 7.9581,1.7364zm161.03-71.9637-26.4609,88.3516h-15.063l-19.0721-65.0481-19.0405,65.0481h-15.1877l-26.6516-88.3516h17.5895l16.2932,67.3538 19.7976-67.3538h14.4306l19.9883,67.3538 16.2617-67.3538h17.1148zm58.8925,65.1427v-19.6083h-10.9247c-22.8303,0-34.2297,6.1886-34.2297,18.5659 0,4.5153 1.7064,7.9581 5.0846,10.3885 3.3782,2.4003 7.8935,3.6005 13.5143,3.6005 2.5896,0 5.1477-.3154 7.7057-.8847 2.5566-.5993 5.02-1.421 7.3257-2.5566 2.3042-1.1055 4.4522-2.4634 6.4094-4.0737 1.9888-1.5787 3.6936-3.4112 5.1146-5.4316zm0,14.2413c-8.272,7.3888-18.629,11.0824-31.1023,11.0824-4.2629,0-8.2104-.5993-11.841-1.8311s-6.821-2.9681-9.5368-5.1777c-2.7143-2.2426-4.8307-4.9269-6.3779-8.0527-1.5472-3.1574-2.3042-6.6302-2.3042-10.4516 0-20.6823 17.8088-31.0077 53.3633-31.0077h7.7989c0-3.8213-.1262-7.1995-.3785-10.1677s-1.0425-5.4316-2.3673-7.4519c-1.3263-1.9903-3.4428-3.5374-6.3478-4.5799-2.8735-1.041-6.9472-1.5787-12.188-1.5787-13.9574,0-21.157,5.053-21.6617,15.0945h-15.82c1.1055-18.315 13.9259-27.4718 38.3965-27.4718 5.5577,0 10.5477.4732 14.9999,1.4841 4.4207.9794 8.2089,2.7158 11.3363,5.2093 3.0943,2.495 5.4932,5.9378 7.1665,10.2623 1.6433,4.3576 2.495,9.8522 2.495,16.5155v57.09h-15.6308v-8.9675z" fill="#333333" fill-rule="nonzero"></path>
  <path d="m582.804,57.4085h-1.6493v-7.8079l-1.801,7.8079h-1.6493l-1.7965-7.8079v7.8079h-1.6643v-9.5593h2.6287l1.6493,7.3723 1.6643-7.3723h2.6182v9.5593zm-9.6615-7.9566h-2.6016v7.9566h-1.7965v-7.9566h-2.6031v-1.6027h7.0012v1.6027z" fill="#4d4948" fill-rule="nonzero"></path>
</svg>
