<svg fill-rule="evenodd" height="50" image-rendering="optimizeQuality" shape-rendering="geometricPrecision" text-rendering="geometricPrecision" viewBox="0 0 39.2799 15.4988" width="127" xml:space="preserve" xmlns="http://www.w3.org/2000/svg"><defs></defs>
  <path d="m5.0365,8.2442c4.2475-5.686 11.5043-11.5878 20.881-4.6807 6.526-8.8765 13.3624,1.6264 13.3624,1.6264-2.8222,1.4477-5.4741,2.6307-7.9608,3.5877 1.559,1.8589 3.1641,4.078 4.8125,6.705 0,0-5.9028.3493-11.3307-4.5899-6.5007,1.6952-11.5907,1.7066-15.4219,1.0504-4.9937,4.0088-7.7137,3.5368-8.5668,3.5394 0,0 .9992-2.4007 2.8661-5.2837-2.5161-1.1801-3.6782-2.407-3.6782-2.407s3.2103,1.2474 5.0365.4522z" fill="#2980b9"></path>
</svg>
