<svg fill-rule="evenodd" height="50" image-rendering="optimizeQuality" shape-rendering="geometricPrecision" text-rendering="geometricPrecision" viewBox="0 0 39.28 15.499" width="127" xmlns="http://www.w3.org/2000/svg"><path fill="currentColor" d="M5.037 8.244c4.247-5.686 11.504-11.588 20.88-4.68C32.444-5.314 39.28 5.19 39.28 5.19a82.014 82.014 0 01-7.96 3.588c1.558 1.858 3.163 4.078 4.812 6.705 0 0-5.903.349-11.331-4.59-6.5 1.695-11.59 1.706-15.422 1.05-4.994 4.009-7.714 3.537-8.567 3.54 0 0 1-2.401 2.866-5.284C1.162 9.019 0 7.792 0 7.792s3.21 1.247 5.037.452z"/></svg>
